<?xml version="1.0" encoding="iso-8859-1"?>
<!-- Generator: Adobe Illustrator 18.0.0, SVG Export Plug-In . SVG Version: 6.00 Build 0)  -->
<!DOCTYPE svg PUBLIC "-//W3C//DTD SVG 1.1//EN" "http://www.w3.org/Graphics/SVG/1.1/DTD/svg11.dtd">
<svg xmlns="http://www.w3.org/2000/svg" xmlns:xlink="http://www.w3.org/1999/xlink" version="1.1" id="Capa_1" x="0px" y="0px" viewBox="0 0 458.88 458.88" style="enable-background:new 0 0 458.88 458.88;" xml:space="preserve" width="512px" height="512px">
<g>
	<path d="M138.074,188.486h32.615c3.038,0,5.5-2.462,5.5-5.5s-2.462-5.5-5.5-5.5h-32.615c-3.038,0-5.5,2.462-5.5,5.5   S135.036,188.486,138.074,188.486z" fill="#FFFFFF"/>
	<path d="M420.525,182.133v3.542h-10.049V167.26h-11v18.416h-33.803l-10.87-17.937h-34.381v-5.835H133.992   c-5.489,0-10.77,2.593-14.125,6.936l-6.961,9.009l-103.49-0.006c-2.543,0.002-4.926,1.002-6.709,2.815s-2.744,4.212-2.704,6.755   l0.583,37.299c0.046,2.952,1.431,5.655,3.801,7.416c1.652,1.228,3.604,1.866,5.598,1.866c0.866,0,1.739-0.121,2.599-0.365   l86.193-24.5c1.438-0.075,15.429-0.8,22.324-0.901c1.469,5.21,1.168,10.847-0.914,15.887l-11.024,26.689l23.424,9.863   l19.915-37.209h10.035c10.006,0,18.377-7.129,20.303-16.574l5.744-0.185c-0.353,31.484,10.489,61.829,30.887,86.076l3.536,4.203   l29.709-24.969l-3.54-4.21c-14.575-17.335-22.338-39.782-21.736-62.353l92.982-3v-5.769h100.104v3.546h38.355v-18.088H420.525z    M11.551,222.485l-0.526-33.643l81.831-0.062v10.594L11.551,222.485z M103.856,197.861v-9.012h14.451l10.264-13.284   c1.288-1.667,3.314-2.662,5.421-2.662h175.429v3.355h-37.535c-10.536,0-19.2,7.424-21.07,17.426   C250.816,193.685,109.626,197.586,103.856,197.861z M127.617,246.639l-4.117-1.734l6.853-16.592c2.648-6.409,3.305-13.48,2-20.221   l16.072-0.331L127.617,246.639z M162.535,212.457h-4.148l2.606-4.87l10.138-0.327C169.501,210.347,166.262,212.457,162.535,212.457   z M237.33,270.572l-2.38,2.002c-3.502,2.946-7.004,5.891-10.507,8.834c-16.562-21.583-25.267-47.872-24.857-75.065l16.836-0.543   C215.954,228.992,223.375,252.024,237.33,270.572z M262.377,193.312c1.651-3.594,5.271-6.053,9.509-6.053h37.535v4.535   L262.377,193.312z M320.421,178.739h28.185l4.204,6.937h-32.389V178.739z" fill="#FFFFFF"/>
</g>
<g>
</g>
<g>
</g>
<g>
</g>
<g>
</g>
<g>
</g>
<g>
</g>
<g>
</g>
<g>
</g>
<g>
</g>
<g>
</g>
<g>
</g>
<g>
</g>
<g>
</g>
<g>
</g>
<g>
</g>
</svg>
